<svg xmlns="http://www.w3.org/2000/svg" viewBox="0 0 1820.65 1003"><defs><style>.cls-1{fill:#020202;opacity:0.25;}.cls-2{fill:#141414;}.cls-3{fill:#828282;}.cls-3,.cls-5{opacity:0.15;}.cls-4{fill:#282828;}.cls-5{fill:none;stroke:#828282;stroke-miterlimit:10;stroke-width:5px;}.cls-6{fill:#242424;}</style></defs><title>bg</title><g id="Layer_2" data-name="Layer 2"><g id="Layer_1-2" data-name="Layer 1"><path class="cls-1" d="M1693,7l127,127,.65,869H140L8,895S1595.67,901.83,1693,7Z"/><path class="cls-2" d="M0,61.36V864.64C0,898.53,28.8,926,64.33,926H1661.67c35.53,0,64.33-27.47,64.33-61.36V61.36C1726,27.47,1697.2,0,1661.67,0H64.33C28.8,0,0,27.47,0,61.36Z"/><polygon class="cls-3" points="1709 685.84 1709 606.16 1640 566.33 1571 606.16 1571 685.84 1640 725.67 1709 685.84"/><polygon class="cls-4" points="689.96 189.99 689.96 133.99 641.46 105.99 592.96 133.99 592.96 189.99 641.46 217.99 689.96 189.99"/><polygon class="cls-4" points="914.33 450.49 914.33 419.47 887.46 403.96 860.6 419.47 860.6 450.49 887.46 466 914.33 450.49"/><polygon class="cls-3" points="416 302 476 233 468 334 416 302"/><polygon class="cls-3" points="787 112 847 43 839 144 787 112"/><polygon class="cls-3" points="1657.23 162.34 1570.88 192.43 1627.99 108.74 1657.23 162.34"/><polygon class="cls-3" points="624.91 566.33 722.71 704.77 544.38 645.86 624.91 566.33"/><polygon class="cls-3" points="1576.21 339.52 1643.24 495.2 1480.96 400.65 1576.21 339.52"/><polygon class="cls-3" points="1151.19 856.75 1238.73 877.66 1146.96 916.71 1151.19 856.75"/><line class="cls-5" x1="695.5" y1="346.5" x2="896.5" y2="234.5"/><circle class="cls-6" cx="904" cy="231" r="9"/><line class="cls-5" x1="1686.58" y1="201.61" x2="1680.83" y2="329.43"/><circle class="cls-6" cx="1680.29" cy="334" r="5"/><line class="cls-5" x1="752.36" y1="844.69" x2="854.83" y2="859.75"/><circle class="cls-6" cx="858.46" cy="860.56" r="4.05"/><line class="cls-5" x1="73.24" y1="225.99" x2="134.82" y2="142.71"/><circle class="cls-6" cx="137.24" cy="139.88" r="4.05"/><line class="cls-5" x1="1538.97" y1="250.7" x2="1485.21" y2="339.23"/><circle class="cls-6" cx="1483.05" cy="342.27" r="4.05"/><line class="cls-5" x1="1282.97" y1="23.7" x2="1229.21" y2="112.23"/><circle class="cls-6" cx="1227.05" cy="115.27" r="4.05"/><circle class="cls-3" cx="119" cy="676" r="30"/><circle class="cls-3" cx="1038" cy="162" r="30"/><circle class="cls-3" cx="386" cy="555" r="30"/><circle class="cls-3" cx="1008" cy="550" r="30"/><circle class="cls-3" cx="326" cy="196" r="30"/><circle class="cls-3" cx="1008" cy="867" r="13"/><circle class="cls-3" cx="641" cy="290" r="13"/><circle class="cls-3" cx="149" cy="59" r="13"/><circle class="cls-3" cx="1450" cy="72" r="13"/><circle class="cls-3" cx="1437" cy="218" r="13"/><circle class="cls-3" cx="1614" cy="857" r="30"/><rect class="cls-3" x="230" y="729" width="138" height="138"/><rect class="cls-3" x="1002" y="262" width="72" height="72"/><rect class="cls-3" x="437" y="22" width="48" height="48"/><rect class="cls-3" x="526" y="793" width="78" height="78" transform="translate(823.2 -140) rotate(49.06)"/><rect class="cls-3" x="124.75" y="298" width="157.51" height="88"/><polygon class="cls-3" points="980.84 660 901.16 660 861.33 729 901.16 798 980.84 798 1020.67 729 980.84 660"/><polygon class="cls-3" points="1078.97 34 1057.03 34 1046.06 53 1057.03 72 1078.97 72 1089.94 53 1078.97 34"/><polygon class="cls-3" points="239 110 279 68 308 110 239 110"/></g></g></svg>