<svg xmlns="http://www.w3.org/2000/svg" viewBox="0 0 1691.77 932"><defs><style>.cls-1{fill:#020202;opacity:0.25;}.cls-2{fill:#141414;}.cls-3{fill:#828282;}.cls-3,.cls-5{opacity:0.15;}.cls-4{fill:#282828;}.cls-5{fill:none;stroke:#828282;stroke-miterlimit:10;stroke-width:5px;}.cls-6{fill:#242424;}</style></defs><title>bg1</title><g id="Layer_2" data-name="Layer 2"><g id="Layer_1-2" data-name="Layer 1"><path class="cls-1" d="M1573.16,6.5l118,118,.6,807.49H130.09L7.43,831.65S1482.71,838,1573.16,6.5Z"/><path class="cls-2" d="M0,57V803.43c0,31.49,26.76,57,59.78,57H1544c33,0,59.78-25.53,59.78-57V57c0-31.49-26.76-57-59.78-57H59.78C26.76,0,0,25.53,0,57Z"/><polygon class="cls-3" points="1588.02 637.29 1588.02 563.25 1523.91 526.24 1459.79 563.25 1459.79 637.29 1523.91 674.31 1588.02 637.29"/><polygon class="cls-4" points="641.12 176.54 641.12 124.5 596.05 98.49 550.99 124.5 550.99 176.54 596.05 202.56 641.12 176.54"/><polygon class="cls-4" points="849.6 418.6 849.6 389.78 824.64 375.37 799.68 389.78 799.68 418.6 824.64 433.01 849.6 418.6"/><polygon class="cls-3" points="386.55 280.62 442.31 216.51 434.87 310.36 386.55 280.62"/><polygon class="cls-3" points="731.29 104.07 787.04 39.96 779.61 133.81 731.29 104.07"/><polygon class="cls-3" points="1539.91 150.85 1459.68 178.81 1512.75 101.05 1539.91 150.85"/><polygon class="cls-3" points="580.68 526.24 671.55 654.88 505.84 600.14 580.68 526.24"/><polygon class="cls-3" points="1464.64 315.49 1526.92 460.15 1376.13 372.29 1464.64 315.49"/><polygon class="cls-3" points="1069.7 796.11 1151.05 815.53 1065.77 851.82 1069.7 796.11"/><line class="cls-5" x1="646.27" y1="321.97" x2="833.04" y2="217.9"/><circle class="cls-6" cx="840.01" cy="214.65" r="8.36"/><line class="cls-5" x1="1567.19" y1="187.34" x2="1561.85" y2="306.11"/><circle class="cls-6" cx="1561.35" cy="310.36" r="4.65"/><line class="cls-5" x1="699.1" y1="784.9" x2="794.32" y2="798.89"/><circle class="cls-6" cx="797.7" cy="799.64" r="3.76"/><line class="cls-5" x1="68.06" y1="209.99" x2="125.28" y2="132.6"/><circle class="cls-6" cx="127.53" cy="129.98" r="3.76"/><line class="cls-5" x1="1430.03" y1="232.96" x2="1380.08" y2="315.22"/><circle class="cls-6" cx="1378.07" cy="318.04" r="3.76"/><line class="cls-5" x1="1192.15" y1="22.03" x2="1142.2" y2="104.29"/><circle class="cls-6" cx="1140.19" cy="107.11" r="3.76"/><circle class="cls-3" cx="110.58" cy="628.15" r="27.88"/><circle class="cls-3" cx="964.52" cy="150.53" r="27.88"/><circle class="cls-3" cx="358.68" cy="515.71" r="27.88"/><circle class="cls-3" cx="936.65" cy="511.07" r="27.88"/><circle class="cls-3" cx="302.92" cy="182.13" r="27.88"/><circle class="cls-3" cx="936.65" cy="805.63" r="12.08"/><circle class="cls-3" cx="595.63" cy="269.47" r="12.08"/><circle class="cls-3" cx="138.45" cy="54.82" r="12.08"/><circle class="cls-3" cx="1347.36" cy="66.9" r="12.08"/><circle class="cls-3" cx="1335.28" cy="202.57" r="12.08"/><circle class="cls-3" cx="1499.75" cy="796.33" r="27.88"/><rect class="cls-3" x="213.72" y="677.4" width="128.23" height="128.23"/><rect class="cls-3" x="931.07" y="243.45" width="66.9" height="66.9"/><rect class="cls-3" x="406.07" y="20.44" width="44.6" height="44.6"/><rect class="cls-3" x="488.77" y="736.87" width="72.48" height="72.48" transform="translate(764.93 -130.09) rotate(49.06)"/><rect class="cls-3" x="115.92" y="276.91" width="146.36" height="81.77"/><polygon class="cls-3" points="911.41 613.28 837.37 613.28 800.35 677.4 837.37 741.51 911.41 741.51 948.42 677.4 911.41 613.28"/><polygon class="cls-3" points="1002.59 31.59 982.21 31.59 972.01 49.25 982.21 66.9 1002.59 66.9 1012.78 49.25 1002.59 31.59"/><polygon class="cls-3" points="222.08 102.21 259.25 63.19 286.2 102.21 222.08 102.21"/></g></g></svg>