<svg xmlns="http://www.w3.org/2000/svg" viewBox="0 0 967.72 748.96"><defs><style>.cls-1{fill:#f9f9f9;}</style></defs><title>logoAsset</title><g id="Layer_2" data-name="Layer 2"><g id="Layer_1-2" data-name="Layer 1"><path class="cls-1" d="M855.83,380.89H754.14c0-2.14.07-4.27.07-6.41q0-155-110.51-264.74c-2.52-2.51-5.08-5-7.64-7.4a299.06,299.06,0,0,1,54.93-5q106.83,0,205.36,86.88l71.37-64.47Q837,1.38,691,1.37q-84.42,0-155.37,32.13Q463.31,0,377.11,0,221,0,110.51,109.74T0,374.48q0,155,110.51,264.74T377.11,749q85.23,0,156.86-32.75Q605.6,748.93,691,749q146.43,0,260.16-107.91V380.88H855.83Zm-280-203.71Q658,258.8,658,374.48c0,2.14,0,4.28-.07,6.41H411.1c0-1.83-.06-3.66-.06-5.5q0-115.22,82.19-196.61a300,300,0,0,1,42.48-35.12A299.43,299.43,0,0,1,575.79,177.18ZM534.29,606.6a299.89,299.89,0,0,1-41.06-34.14q-52.38-51.87-71.36-117.68h225Q627.81,520.17,575.79,572A298.55,298.55,0,0,1,534.29,606.6ZM377.11,653.85q-116,0-198.46-81.84T96.23,374.48q0-115.68,82.19-197.3T377.11,95.56a300.38,300.38,0,0,1,58.18,5.53c-3.51,3.27-7,6.59-10.43,10q-110.05,109.74-110,264.28,0,155,110.05,264.29c3.05,3,6.13,6,9.24,8.87A299.71,299.71,0,0,1,377.11,653.85Zm313.88,0a298,298,0,0,1-57-5.34c3.25-3,6.49-6.12,9.68-9.29q80.71-80.15,102.45-184.44H855.83v147Q790.45,653.86,691,653.85Z"/></g></g></svg>